<?xml version="1.0" encoding="utf-8"?>
<!-- Generator: Adobe Illustrator 23.0.1, SVG Export Plug-In . SVG Version: 6.00 Build 0)  -->
<svg version="1.1" id="Layer_1" xmlns="http://www.w3.org/2000/svg" xmlns:xlink="http://www.w3.org/1999/xlink" x="0px" y="0px"
	 viewBox="0 0 77 32" style="enable-background:new 0 0 77 32;" xml:space="preserve">
<style type="text/css">
	.st0{fill:#39AB6F;}
	.st1{fill:#FFFFFF;}
</style>
<g>
	<path class="st0" d="M71.24,32H0V0h77v26.24C77,29.4212,74.4212,32,71.24,32z"/>
	<g>
		<path class="st1" d="M17.834,22.2838c-0.6221-0.708-0.9619-1.7637-1.0186-3.168l2.1743-0.4277
			c0.0342,0.8789,0.1738,1.5498,0.4194,2.0117s0.6309,0.6934,1.1558,0.6934c0.3882,0,0.6763-0.1172,0.8647-0.3506
			c0.1885-0.2344,0.2827-0.5508,0.2827-0.9502c0-0.5479-0.123-1.0107-0.3682-1.3877c-0.2456-0.376-0.6309-0.7988-1.1558-1.2666
			l-1.7466-1.5234c-0.5366-0.4795-0.939-0.9736-1.207-1.4814c-0.2686-0.5078-0.4023-1.1328-0.4023-1.875
			c0-1.0957,0.3193-1.9404,0.9585-2.5342c0.6392-0.5928,1.5239-0.8896,2.6543-0.8896c1.187,0,2.0376,0.3398,2.5508,1.0186
			c0.5137,0.6797,0.8105,1.5957,0.8906,2.748l-2.1743,0.377c-0.0347-0.7422-0.1348-1.3076-0.2998-1.6953
			c-0.1655-0.3877-0.4878-0.582-0.9673-0.582c-0.3882,0-0.6938,0.1201-0.916,0.3594c-0.2227,0.2402-0.334,0.5537-0.334,0.9414
			c0,0.4453,0.0913,0.8164,0.2739,1.1133s0.4678,0.6221,0.856,0.9756l1.7295,1.5244c0.6504,0.582,1.1582,1.1865,1.5239,1.8145
			c0.3652,0.6279,0.5479,1.3643,0.5479,2.209c0,0.6621-0.1455,1.25-0.4365,1.7637s-0.6997,0.916-1.2246,1.207
			s-1.1299,0.4365-1.8149,0.4365C19.395,23.3453,18.4561,22.9918,17.834,22.2838z"/>
		<path class="st1" d="M26.9683,11.1549h-2.3115V9.2887h7.106v1.8662h-2.2773v12.002h-2.5171V11.1549z"/>
		<path class="st1" d="M32.8755,9.2887h5.8218v1.7803h-3.3047v3.9893h2.6025v1.7637h-2.6025v4.6055h3.3389v1.7295h-5.856V9.2887z"/>
		<path class="st1" d="M40.2031,9.2887h4.0762c2.3623,0,3.543,1.3125,3.543,3.9375c0,2.5117-1.2383,3.7666-3.7148,3.7666h-1.3867
			v6.1641h-2.5176V9.2887z M43.6963,15.2125c0.6846,0,1.1475-0.1455,1.3877-0.4365c0.2393-0.291,0.3594-0.8135,0.3594-1.5664
			c0-0.5479-0.041-0.9678-0.1201-1.2588c-0.0801-0.291-0.2432-0.5107-0.4883-0.6592s-0.625-0.2227-1.1387-0.2227h-0.9756v4.1436
			H43.6963z"/>
		<path class="st1" d="M53.0957,19.3902v-0.4795h2.3633v0.4111c0.0117,0.707,0.1084,1.2266,0.291,1.5576
			s0.5137,0.4971,0.9932,0.4971s0.8076-0.1777,0.9844-0.5312s0.2656-0.9014,0.2656-1.6436c0-0.7539-0.123-1.3242-0.3682-1.7119
			c-0.2461-0.3887-0.665-0.5996-1.2588-0.6338h-0.3936v-1.9004h0.3418c0.6172-0.0117,1.0508-0.1768,1.3018-0.4961
			c0.251-0.3203,0.377-0.8447,0.377-1.5762c0-0.627-0.0947-1.0957-0.2822-1.4033c-0.1895-0.3086-0.5225-0.4629-1.002-0.4629
			c-0.4688,0-0.791,0.166-0.9668,0.4971c-0.1777,0.3311-0.2715,0.8213-0.2832,1.4727v0.4961h-2.3633v-0.6504
			c0-1.1875,0.3115-2.1035,0.9336-2.748s1.5156-0.9678,2.6797-0.9678c1.1758,0,2.0742,0.3174,2.6973,0.9502
			c0.6211,0.6338,0.9326,1.5391,0.9326,2.7139c0,0.8105-0.1689,1.4814-0.5049,2.0117c-0.3369,0.5312-0.7793,0.877-1.3271,1.0361
			c0.5703,0.1943,1.0186,0.5625,1.3438,1.1045s0.4883,1.2812,0.4883,2.2168c0,1.3242-0.291,2.3574-0.874,3.0996
			c-0.582,0.7422-1.4941,1.1123-2.7383,1.1123C54.3066,23.3619,53.0957,22.0387,53.0957,19.3902z"/>
	</g>
</g>
</svg>
