<?xml version="1.0" encoding="utf-8"?>
<!-- Generator: Adobe Illustrator 23.0.1, SVG Export Plug-In . SVG Version: 6.00 Build 0)  -->
<svg version="1.1" id="Layer_1" xmlns="http://www.w3.org/2000/svg" xmlns:xlink="http://www.w3.org/1999/xlink" x="0px" y="0px"
	 viewBox="0 0 77 32" style="enable-background:new 0 0 77 32;" xml:space="preserve">
<style type="text/css">
	.st0{fill:#39AB6F;}
	.st1{fill:#FFFFFF;}
</style>
<g>
	<path class="st0" d="M71.24,32H0V0h77v26.24C77,29.4212,74.4212,32,71.24,32z"/>
	<g>
		<path class="st1" d="M17.7827,22.2844c-0.6221-0.708-0.9619-1.7637-1.0186-3.168l2.1743-0.4277
			c0.0342,0.8789,0.1738,1.5498,0.4194,2.0117s0.6309,0.6934,1.1558,0.6934c0.3882,0,0.6763-0.1172,0.8647-0.3506
			c0.1885-0.2344,0.2827-0.5508,0.2827-0.9502c0-0.5479-0.123-1.0107-0.3682-1.3877c-0.2456-0.376-0.6309-0.7988-1.1558-1.2666
			l-1.7466-1.5244c-0.5366-0.4795-0.939-0.9727-1.207-1.4805c-0.2686-0.5078-0.4023-1.1328-0.4023-1.875
			c0-1.0957,0.3193-1.9404,0.9585-2.5342S19.2637,9.134,20.394,9.134c1.187,0,2.0376,0.3398,2.5508,1.0186
			c0.5137,0.6797,0.8105,1.5957,0.8906,2.749l-2.1743,0.376c-0.0347-0.7412-0.1348-1.3066-0.2998-1.6953
			c-0.1655-0.3877-0.4878-0.582-0.9673-0.582c-0.3882,0-0.6938,0.1201-0.916,0.3604c-0.2227,0.2393-0.334,0.5537-0.334,0.9414
			c0,0.4453,0.0913,0.8164,0.2739,1.1133s0.4678,0.6221,0.856,0.9756l1.7295,1.5234c0.6504,0.583,1.1582,1.1875,1.5239,1.8154
			c0.3652,0.6279,0.5479,1.3643,0.5479,2.209c0,0.6621-0.1455,1.25-0.4365,1.7637s-0.6997,0.916-1.2246,1.207
			s-1.1299,0.4365-1.8149,0.4365C19.3438,23.3459,18.4048,22.9924,17.7827,22.2844z"/>
		<path class="st1" d="M26.917,11.1545h-2.3115V9.2883h7.106v1.8662h-2.2773v12.0029H26.917V11.1545z"/>
		<path class="st1" d="M32.8242,9.2883h5.8213v1.7803h-3.3042v3.9902h2.6025v1.7637h-2.6025v4.6055h3.3384v1.7295h-5.8555V9.2883z"
			/>
		<path class="st1" d="M40.1523,9.2883h4.0752c2.3623,0,3.5439,1.3125,3.5439,3.9385c0,2.5107-1.2383,3.7666-3.7148,3.7666h-1.3867
			v6.1641h-2.5176V9.2883z M43.6445,15.2121c0.6855,0,1.1484-0.1455,1.3877-0.4365s0.3594-0.8125,0.3594-1.5664
			c0-0.5479-0.04-0.9668-0.1201-1.2588c-0.0801-0.291-0.2422-0.5107-0.4883-0.6592c-0.2451-0.1475-0.625-0.2227-1.1387-0.2227
			h-0.9746v4.1436H43.6445z"/>
		<path class="st1" d="M53.9609,22.3097c-0.5078-0.7021-0.7617-1.7432-0.7617-3.125h2.3105c0,0.7881,0.0859,1.3818,0.2578,1.7812
			c0.1709,0.3994,0.5078,0.5986,1.0098,0.5986c0.377,0,0.6562-0.1221,0.8389-0.3682c0.1826-0.2451,0.2998-0.5762,0.3506-0.9922
			c0.0527-0.417,0.0781-0.9961,0.0781-1.7383c0-0.9131-0.0859-1.5869-0.2578-2.0205c-0.1709-0.4336-0.5244-0.6504-1.0605-0.6504
			c-0.3203,0-0.5918,0.1084-0.8145,0.3252c-0.2217,0.2168-0.3848,0.5137-0.4873,0.8906h-2.0381l0.1377-7.7227h6.2324v2.123h-4.2471
			l-0.1367,3.3389c0.1943-0.2168,0.4746-0.3906,0.8398-0.5225c0.3652-0.1309,0.7637-0.1963,1.1982-0.1963
			c0.9814,0,1.709,0.374,2.1826,1.1211c0.4736,0.748,0.7109,1.8008,0.7109,3.1592c0,1.0615-0.0996,1.958-0.2998,2.6885
			s-0.5625,1.3066-1.0869,1.7295c-0.5254,0.4219-1.2676,0.6328-2.2266,0.6328C55.3789,23.3625,54.4688,23.0119,53.9609,22.3097z"/>
	</g>
</g>
</svg>
