<?xml version="1.0" encoding="utf-8"?>
<!-- Generator: Adobe Illustrator 23.0.1, SVG Export Plug-In . SVG Version: 6.00 Build 0)  -->
<svg version="1.1" id="Layer_1" xmlns="http://www.w3.org/2000/svg" xmlns:xlink="http://www.w3.org/1999/xlink" x="0px" y="0px"
	 viewBox="0 0 77 32" style="enable-background:new 0 0 77 32;" xml:space="preserve">
<style type="text/css">
	.st0{fill:#39AB6F;}
	.st1{fill:#FFFFFF;}
</style>
<g>
	<path class="st0" d="M71.24,32H0V0h77v26.24C77,29.4212,74.4212,32,71.24,32z"/>
	<g>
		<path class="st1" d="M17.7144,22.2842c-0.6221-0.708-0.9619-1.7637-1.0186-3.168l2.1743-0.4277
			c0.0342,0.8789,0.1738,1.5498,0.4194,2.0117s0.6309,0.6934,1.1558,0.6934c0.3882,0,0.6763-0.1172,0.8647-0.3506
			c0.1885-0.2344,0.2827-0.5508,0.2827-0.9502c0-0.5479-0.123-1.0107-0.3682-1.3877c-0.2456-0.376-0.6309-0.7988-1.1558-1.2666
			l-1.7466-1.5234c-0.5366-0.4795-0.939-0.9736-1.207-1.4814c-0.2686-0.5078-0.4023-1.1328-0.4023-1.875
			c0-1.0957,0.3193-1.9404,0.9585-2.5342c0.6392-0.5928,1.5239-0.8896,2.6543-0.8896c1.187,0,2.0376,0.3398,2.5508,1.0186
			c0.5137,0.6797,0.8105,1.5957,0.8906,2.748l-2.1743,0.377c-0.0347-0.7422-0.1348-1.3076-0.2998-1.6953
			c-0.1655-0.3877-0.4878-0.582-0.9673-0.582c-0.3882,0-0.6938,0.1201-0.916,0.3594c-0.2227,0.2402-0.334,0.5537-0.334,0.9414
			c0,0.4453,0.0913,0.8164,0.2739,1.1133s0.4678,0.6221,0.856,0.9756l1.7295,1.5244c0.6504,0.582,1.1582,1.1865,1.5239,1.8145
			c0.3652,0.6279,0.5479,1.3643,0.5479,2.209c0,0.6621-0.1455,1.25-0.4365,1.7637s-0.6997,0.916-1.2246,1.207
			s-1.1299,0.4365-1.8149,0.4365C19.2754,23.3457,18.3364,22.9922,17.7144,22.2842z"/>
		<path class="st1" d="M26.8486,11.1552h-2.3115V9.289h7.106v1.8662h-2.2773v12.002h-2.5171V11.1552z"/>
		<path class="st1" d="M32.7559,9.289h5.8213v1.7803h-3.3042v3.9893h2.6025v1.7637h-2.6025v4.6055h3.3384v1.7295h-5.8555V9.289z"/>
		<path class="st1" d="M40.084,9.289h4.0752c2.3623,0,3.5439,1.3125,3.5439,3.9375c0,2.5117-1.2383,3.7666-3.7148,3.7666h-1.3867
			v6.1641H40.084V9.289z M43.5762,15.2129c0.6855,0,1.1484-0.1455,1.3877-0.4365s0.3594-0.8135,0.3594-1.5664
			c0-0.5479-0.04-0.9678-0.1201-1.2588s-0.2422-0.5107-0.4883-0.6592c-0.2451-0.1484-0.625-0.2227-1.1387-0.2227h-0.9746v4.1436
			H43.5762z"/>
		<path class="st1" d="M54.0117,22.0957c-0.5986-0.833-0.8984-1.9346-0.8984-3.3047v-4.8623c0-1.4951,0.2715-2.668,0.8135-3.5186
			s1.4814-1.2754,2.8164-1.2754c1.1758,0,2.04,0.291,2.5947,0.873c0.5527,0.582,0.8418,1.4492,0.8643,2.6025l0.0166,0.2227h-2.2773
			c0-0.6621-0.0801-1.1357-0.2393-1.4209c-0.1602-0.2852-0.4736-0.4287-0.9424-0.4287c-0.4561,0-0.7783,0.2139-0.9668,0.6426
			c-0.1875,0.4277-0.2822,1.167-0.2822,2.2168v1.6436c0.1592-0.2617,0.4072-0.4707,0.7451-0.624
			c0.3359-0.1543,0.7324-0.2314,1.1895-0.2314c1.9521,0,2.9277,1.3301,2.9277,3.9893c0,1.4727-0.2852,2.6279-0.8555,3.4668
			c-0.5713,0.8389-1.4961,1.2588-2.7744,1.2588C55.5215,23.3457,54.6113,22.9287,54.0117,22.0957z M57.7285,20.8974
			c0.1758-0.4111,0.2646-1.0215,0.2646-1.832c0-0.6172-0.0225-1.1016-0.0684-1.4561c-0.0459-0.3535-0.1572-0.6387-0.334-0.8555
			s-0.4541-0.3252-0.8311-0.3252c-0.2734,0-0.5215,0.0742-0.7441,0.2217c-0.2227,0.1494-0.3906,0.3203-0.5049,0.5137v2.1748
			c0,1.4502,0.417,2.1748,1.249,2.1748C57.2285,21.5136,57.5508,21.3076,57.7285,20.8974z"/>
	</g>
</g>
</svg>
