<?xml version="1.0" encoding="utf-8"?>
<!-- Generator: Adobe Illustrator 19.0.0, SVG Export Plug-In . SVG Version: 6.00 Build 0)  -->
<svg version="1.1" id="Layer_1" xmlns="http://www.w3.org/2000/svg" xmlns:xlink="http://www.w3.org/1999/xlink" x="0px" y="0px"
	 viewBox="2125 -375.5 4862.7 1543.5" style="enable-background:new 2125 -375.5 4862.7 1543.5;" xml:space="preserve">
<path id="XMLID_71_" d="M2757.7-367.5c-49.7-7.6-114.9-5.4-114.9-5.4s-267.8,0-517.8,0c46.1,0,426.3,33.8,589.8,100.9
	c-48.8,104-147.5,132.8-147.5,132.8L2142.7,1168c0,0,881.3-513,1059-1059.7C3329.4-284.6,2970-357.5,2757.7-367.5z M3077.2,58.1
	c-125,384.6-585.5,720.1-585.5,720.1l334-1027.7C2825.7-249.4,3149.3-163.5,3077.2,58.1z M3881-372.9L3532.1,700.6L3369.4-372.9
	c0,0,41.8,125.4,129.6,155.2l65,507l164.8-507C3830.2-242.4,3881-372.9,3881-372.9z M3344.9-62.5l97.3,709.9
	c-62.1,18.5-104,50.2-108,52.8l0,0l-22.7-185.3c-19.5-2-50.8-2.1-97-1.6l-48.4,119.1c-82.5,16.6-140.5,65.4-143.8,68.2h-0.4
	l78.6-182.5c-35.5,2.4-75.7,3.2-121.1,8.1c91.2-42.8,253.2-68.3,324.2-77.9L3289,329.8L3246.8,432c-29.4,4-72.6,10.5-119.5,19.6
	L3344.9-62.5z M4187.1,357.9c61.2-100.4,102.6-186.7,121.9-256.1c63-227.3-304-239-451.7-241.9c86.5,16.3,171.1,34.5,234.5,67.2
	c-17.6,24.3-47.4,45.8-80.9,64.1l-230.5,709.2C3780.5,700.4,4056,573,4187.1,357.9z M4126.7-51.7c64.7,46.3,94.4,116.6,56.9,232
	c-40.9,125.9-156.5,268.6-253.4,372.7L4126.7-51.7z M6987.7-372.7c0,0-142.8,47.5-181.5,155.2h-2136l-399.4,1228.6l-232.1,155.1
	l422-1306.3c0,0,81.4-1.9,132.7-77.6h-280.6l-346.5-157.8L6987.7-372.7z M3928.6,27.4l-199,613.8c-73.1,20.5-122.2,63.2-122.2,63.2
	l207.4-641.7C3814.8,62.7,3868.1,51.3,3928.6,27.4z M4866.1-62.5c-168.6,0-195.5,130.8-275.6,354.7c0,0-163.1,412.2,22,412.2
	c185,0,218.2-144.7,291.6-350S5034.7-62.5,4866.1-62.5z M4814.3,320.9C4739.8,531,4699.5,609,4645.9,609
	c-44.4,0-40.5-72.4,42.8-306.9c0,0,86.4-293.3,164.8-293.3C4911,8.8,4888.8,110.8,4814.3,320.9z M5150,250.6
	c18.6-6.2,40-13.5,64.8-22.1c220-75.7,234.5-197.2,145.7-291.1s-411.3-77.5-411.3-77.5c105.7,16.1,183.3,33.7,238.4,53.2
	c-27.7,27.9-62.6,50.1-98,67.5l-235.2,723.6c0,0,49.1-42.7,122.3-63.2l121.4-373.5c2.2-0.7,4.5-1.4,6.9-2.2l33.8,382.8
	c85.8,37.4,134.3,112.7,144.6,129.9h1.4l-58.6-490.1C5196.8,275.9,5170.5,262.3,5150,250.6z M5107.4,238.9l103-316.9
	c96.8,40.1,107.6,88.6,76.9,150.1C5257.7,131.4,5170.5,197,5107.4,238.9z M5555.4,222.4c17.2-5.8,37.2-12.6,60.2-20.5
	c204.2-70.3,217.6-183,135.2-270.1c-82.4-87.1-381.8-71.9-381.8-71.9c98.1,15,170.1,31.3,221.2,49.4c-25.7,25.9-58.1,46.5-90.9,62.7
	l-177.7,546.1c0,0,6.9,41.5,31.4,194l154.2-473.8c2.1-0.7,4.2-1.3,6.4-2l31.4,355.3c79.7,34.7,124.7,104.6,134.2,120.6h1.3
	l-54.4-454.9C5598.8,245.9,5574.5,233.3,5555.4,222.4z M5515.9,211.5l95.6-294.1c89.8,37.3,99.9,82.2,71.4,139.3
	C5655.4,111.8,5574.4,172.7,5515.9,211.5z M6519.4-141.1c92.6,0,221.8,0,221.8,0s-115.9,37.7-136.7,102c0,0-56.8,0-114.1,0
	c-82.5,0-97.9,57.1-119.2,115.8s16.1,76.6,104.4,100.9c134.9,37,107.7,159,68.7,281.2c-24.2,75.6-83.4,245.6-334.1,245.6
	c-189.3,0-409.2,0-409.2,0L5735.7,589c0,0,236.6,0,431.8,0c195.2,0,224.8-23.1,276.9-149.8c40.6-98.8,27.3-141.9-52.6-164.6
	c-71.1-20.2-176.3-25.1-115-217C6317.9-71.1,6377-141.1,6519.4-141.1z M5872.1,415.7h413.6c-46.2,21.4-78.7,59.3-104.2,112.5h-445.8
	l120.6-390.9l107.9,0.6v-0.1h136.7l-34.7,112.5h-143L5872.1,415.7z M6355.4-139.9v0.1c-48.5,20.5-82.2,58.5-108.6,112.4h-237.9
	l-42.7,137.9l-100.5-4l50.7-164.4l0.5-1.1c0,0,21.3-80.9-72.8-80.9c66.6,0,97.6,0,97.6,0h101.8H6355.4z M2602.9,933.5l186.9-155.3
	h1274.7L4012,933.5H2602.9z M6484,778.3l-186.9,155.2h-392.3l50.5-155.3H6484V778.3z M4593,778.1c-70.9,0-138.1,0-138.1,0
	l-50.1,155.4c0,0,119.7,0,159.9,0s85.5-41.9,97-77.6C4673.3,820.1,4663.9,778.1,4593,778.1z M4606.3,848.9
	c-4.3,13.5-16.1,29.5-30.7,41.7c-15.2,12.8-31.5,20.1-44.8,20.1h-64.1L4502,801h57c22.9,0,39.2,5.1,45.9,14.4
	C4612.5,825.9,4608.4,842.3,4606.3,848.9z M4765.9,801l-14,43.6h99.7l-7.3,22.7h-99.6l-14,43.6h170.1l-7.3,22.7h-224.6l50.1-155.4
	l224.6,0.1l-7.3,22.7L4765.9,801L4765.9,801z M5013.2,827.1c-2.9,10.9,0.2,14.4,16,14.4H5155c24.2,1,34,9,27.1,30.4l0,0l-9.8,30.4
	c-7,18.9-20.9,31.1-44.4,31.1c-1.2,0-2.3,0-3.3,0.1h-200.2l7.3-22.7H5101c11.7-0.7,15.6-6.8,21.2-22l3.9-12.1
	c1.8-8.2-0.5-11.7-10.5-12.5h-126c-28.4,0-40.3-7.5-32.8-30.5l6.9-21.5c6.6-20.5,20.7-33.9,45.3-33.9h203.4l-7.3,22.7h-164.8
	c-14.2,0-17.9,0.2-24.5,18.7L5013.2,827.1z M5266.9,933.5h-54.6l50.1-155.4h54.6L5266.9,933.5z M5855.5,778.1l-50,155.4h-54.6
	l-65.7-129.2l-41.6,129.2H5589l50.1-155.4h54.6l66.2,127.9l41.2-127.9H5855.5z M5380.2,898.4c-1.8,8.1,0.5,11.6,10.5,12.5h101.2
	l15.2-46.6h-71.5l7.3-22.7h71.6h10.1h44.5l-30.1,92.1h-54.6H5365l0,0h-7.9c-28.4,0-40.3-7.5-32.8-30.5l2.3-7.2l0,0l27.6-85.6
	c6.9-19.4,20.9-31.9,44.6-31.9c1.3,0,2.5-0.1,3.7-0.2l186.6,0.1l-7.3,22.7h-156c-10.3,0.2-14.1,2-19.5,16.4L5380.2,898.4z"/>
</svg>
