<?xml version="1.0" encoding="utf-8"?>
<!-- Generator: Adobe Illustrator 23.0.1, SVG Export Plug-In . SVG Version: 6.00 Build 0)  -->
<svg version="1.1" id="Layer_1" xmlns="http://www.w3.org/2000/svg" xmlns:xlink="http://www.w3.org/1999/xlink" x="0px" y="0px"
	 viewBox="0 0 77 32" style="enable-background:new 0 0 77 32;" xml:space="preserve">
<style type="text/css">
	.st0{fill:#39AB6F;}
	.st1{fill:#FFFFFF;}
</style>
<path class="st0" d="M71.24,32H0V0h77v26.24C77,29.4212,74.4212,32,71.24,32z"/>
<g>
	<path class="st1" d="M17.834,22.2842c-0.6221-0.708-0.9619-1.7637-1.0186-3.168l2.1743-0.4277
		c0.0342,0.8789,0.1738,1.5498,0.4194,2.0117s0.6309,0.6934,1.1558,0.6934c0.3882,0,0.6763-0.1172,0.8647-0.3506
		c0.1885-0.2344,0.2827-0.5508,0.2827-0.9502c0-0.5479-0.123-1.0107-0.3682-1.3877c-0.2456-0.376-0.6309-0.7988-1.1558-1.2666
		l-1.7466-1.5239c-0.5366-0.4795-0.939-0.9731-1.207-1.481c-0.2686-0.5078-0.4023-1.1328-0.4023-1.875
		c0-1.0957,0.3193-1.9404,0.9585-2.5342c0.6392-0.5933,1.5239-0.8901,2.6543-0.8901c1.187,0,2.0376,0.3398,2.5508,1.0186
		c0.5137,0.6797,0.8105,1.5957,0.8906,2.7485l-2.1743,0.3765c-0.0347-0.7417-0.1348-1.3071-0.2998-1.6953
		c-0.1655-0.3877-0.4878-0.582-0.9673-0.582c-0.3882,0-0.6938,0.1201-0.916,0.3599c-0.2227,0.2397-0.334,0.5537-0.334,0.9414
		c0,0.4453,0.0913,0.8164,0.2739,1.1133s0.4678,0.6221,0.856,0.9756l1.7295,1.5239c0.6504,0.5825,1.1582,1.187,1.5239,1.8149
		c0.3652,0.6279,0.5479,1.3643,0.5479,2.209c0,0.6621-0.1455,1.25-0.4365,1.7637s-0.6997,0.916-1.2246,1.207
		s-1.1299,0.4365-1.8149,0.4365C19.395,23.3457,18.4561,22.9922,17.834,22.2842z"/>
	<path class="st1" d="M26.9683,11.1548h-2.3115V9.2886h7.106v1.8662h-2.2773v12.0024h-2.5171V11.1548z"/>
	<path class="st1" d="M32.8755,9.2886h5.8218v1.7803h-3.3047v3.9897h2.6025v1.7637h-2.6025v4.6055h3.3389v1.7295h-5.856V9.2886z"/>
	<path class="st1" d="M40.2031,9.2886h4.0762c2.3623,0,3.543,1.3125,3.543,3.938c0,2.5112-1.2383,3.7666-3.7148,3.7666h-1.3867
		v6.1641h-2.5176V9.2886z M43.6963,15.2124c0.6846,0,1.1475-0.1455,1.3877-0.4365c0.2393-0.291,0.3594-0.813,0.3594-1.5664
		c0-0.5479-0.041-0.9673-0.1201-1.2588c-0.0801-0.291-0.2432-0.5107-0.4883-0.6592c-0.2451-0.1479-0.625-0.2227-1.1387-0.2227
		h-0.9756v4.1436H43.6963z"/>
	<path class="st1" d="M56.0068,11.9082c-0.1143,0.0801-0.5303,0.2114-1.25,0.3936c-0.582,0.1714-0.8789,0.2627-0.8896,0.2739
		v-1.7632c0.4561-0.1602,0.9551-0.3794,1.498-0.6597c0.541-0.2793,0.9385-0.5674,1.1895-0.8643h1.832v13.8687h-2.3799V11.9082z"/>
</g>
</svg>
