<?xml version="1.0" encoding="utf-8"?>
<!-- Generator: Adobe Illustrator 19.0.0, SVG Export Plug-In . SVG Version: 6.00 Build 0)  -->
<svg version="1.1" id="Layer_1" xmlns="http://www.w3.org/2000/svg" xmlns:xlink="http://www.w3.org/1999/xlink" x="0px" y="0px"
	 viewBox="0 0 4862.7 1543.5" style="enable-background:new 0 0 4862.7 1543.5;" xml:space="preserve">
<style type="text/css">
	.st0{fill:#FFFFFF;}
</style>
<path id="XMLID_71_" class="st0" d="M632.7,8c-49.7-7.6-114.9-5.4-114.9-5.4S250,2.6,0,2.6c46.1,0,426.3,33.8,589.8,100.9
	C541,207.5,442.3,236.3,442.3,236.3L17.7,1543.5c0,0,881.3-513,1059-1059.7C1204.4,90.9,845,18,632.7,8z M952.2,433.6
	c-125,384.6-585.5,720.1-585.5,720.1l334-1027.7C700.7,126.1,1024.3,212,952.2,433.6z M1756,2.6l-348.9,1073.5L1244.4,2.6
	c0,0,41.8,125.4,129.6,155.2l65,507l164.8-507C1705.2,133.1,1756,2.6,1756,2.6z M1219.9,313l97.3,709.9
	c-62.1,18.5-104,50.2-108,52.8h0l-22.7-185.3c-19.5-2-50.8-2.1-97-1.6l-48.4,119.1c-82.5,16.6-140.5,65.4-143.8,68.2l-0.4,0
	l78.6-182.5c-35.5,2.4-75.7,3.2-121.1,8.1c91.2-42.8,253.2-68.3,324.2-77.9L1164,705.3l-42.2,102.2c-29.4,4-72.6,10.5-119.5,19.6
	L1219.9,313z M2062.1,733.4c61.2-100.4,102.6-186.7,121.9-256.1c63-227.3-304-239-451.7-241.9c86.5,16.3,171.1,34.5,234.5,67.2
	c-17.6,24.3-47.4,45.8-80.9,64.1l-230.5,709.2C1655.5,1075.9,1931,948.5,2062.1,733.4z M2001.7,323.8c64.7,46.3,94.4,116.6,56.9,232
	c-40.9,125.9-156.5,268.6-253.4,372.7L2001.7,323.8z M4862.7,2.8c0,0-142.8,47.5-181.5,155.2H2545.2l-399.4,1228.6l-232.1,155.1
	l422-1306.3c0,0,81.4-1.9,132.7-77.6l-280.6,0L1841.3,0L4862.7,2.8z M1803.6,402.9l-199,613.8c-73.1,20.5-122.2,63.2-122.2,63.2
	l207.4-641.7C1689.8,438.2,1743.1,426.8,1803.6,402.9z M2741.1,313c-168.6,0-195.5,130.8-275.6,354.7c0,0-163.1,412.2,22,412.2
	c185,0,218.2-144.7,291.6-350S2909.7,313,2741.1,313z M2689.3,696.4c-74.5,210.1-114.8,288.1-168.4,288.1
	c-44.4,0-40.5-72.4,42.8-306.9c0,0,86.4-293.3,164.8-293.3C2786,384.3,2763.8,486.3,2689.3,696.4z M3025,626.1
	c18.6-6.2,40-13.5,64.8-22.1c220-75.7,234.5-197.2,145.7-291.1s-411.3-77.5-411.3-77.5c105.7,16.1,183.3,33.7,238.4,53.2
	c-27.7,27.9-62.6,50.1-98,67.5l-235.2,723.6c0,0,49.1-42.7,122.3-63.2l121.4-373.5c2.2-0.7,4.5-1.4,6.9-2.2l33.8,382.8
	c85.8,37.4,134.3,112.7,144.6,129.9h1.4l-58.6-490.1C3071.8,651.4,3045.5,637.8,3025,626.1z M2982.4,614.4l103-316.9
	c96.8,40.1,107.6,88.6,76.9,150.1C3132.7,506.9,3045.5,572.5,2982.4,614.4z M3430.4,597.9c17.2-5.8,37.2-12.6,60.2-20.5
	c204.2-70.3,217.6-183,135.2-270.1c-82.4-87.1-381.8-71.9-381.8-71.9c98.1,15,170.1,31.3,221.2,49.4c-25.7,25.9-58.1,46.5-90.9,62.7
	l-177.7,546.1c0,0,6.9,41.5,31.4,194l154.2-473.8c2.1-0.7,4.2-1.3,6.4-2l31.4,355.3c79.7,34.7,124.7,104.6,134.2,120.6h1.3
	l-54.4-454.9C3473.8,621.4,3449.5,608.8,3430.4,597.9z M3390.9,587l95.6-294.1c89.8,37.3,99.9,82.2,71.4,139.3
	C3530.4,487.3,3449.4,548.2,3390.9,587z M4394.4,234.4c92.6,0,221.8,0,221.8,0s-115.9,37.7-136.7,102c0,0-56.8,0-114.1,0
	c-82.5,0-97.9,57.1-119.2,115.8s16.1,76.6,104.4,100.9c134.9,37,107.7,159,68.7,281.2c-24.2,75.6-83.4,245.6-334.1,245.6
	c-189.3,0-409.2,0-409.2,0l-65.3-115.4c0,0,236.6,0,431.8,0s224.8-23.1,276.9-149.8c40.6-98.8,27.3-141.9-52.6-164.6
	c-71.1-20.2-176.3-25.1-115-217C4192.9,304.4,4252,234.4,4394.4,234.4z M3747.1,791.2h413.6c-46.2,21.4-78.7,59.3-104.2,112.5
	h-445.8l120.6-390.9l107.9,0.6l0-0.1h136.7l-34.7,112.5h-143L3747.1,791.2z M4230.4,235.6l0,0.1c-48.5,20.5-82.2,58.5-108.6,112.4
	h-237.9L3841.2,486l-100.5-4l50.7-164.4l0.5-1.1c0,0,21.3-80.9-72.8-80.9c66.6,0,97.6,0,97.6,0h101.8H4230.4z M477.9,1309
	l186.9-155.3h1274.7L1887,1309H477.9z M4359,1153.8L4172.1,1309h-392.3l50.5-155.3H4359z M2468,1153.6c-70.9,0-138.1,0-138.1,0
	l-50.1,155.4c0,0,119.7,0,159.9,0s85.5-41.9,97-77.6C2548.3,1195.6,2538.9,1153.6,2468,1153.6z M2481.3,1224.4
	c-4.3,13.5-16.1,29.5-30.7,41.7c-15.2,12.8-31.5,20.1-44.8,20.1h-64.1l35.3-109.7h57c22.9,0,39.2,5.1,45.9,14.4
	C2487.5,1201.4,2483.4,1217.8,2481.3,1224.4z M2640.9,1176.5l-14,43.6h99.7l-7.3,22.7h-99.6l-14,43.6h170.1l-7.3,22.7h-224.6
	l50.1-155.4l224.6,0.1l-7.3,22.7H2640.9z M2888.2,1202.6c-2.9,10.9,0.2,14.4,16,14.4H3030c24.2,1,34,9,27.1,30.4l0,0l-9.8,30.4
	c-7,18.9-20.9,31.1-44.4,31.1c-1.2,0-2.3,0-3.3,0.1h-200.2l7.3-22.7H2976c11.7-0.7,15.6-6.8,21.2-22l3.9-12.1
	c1.8-8.2-0.5-11.7-10.5-12.5h-126c-28.4,0-40.3-7.5-32.8-30.5l6.9-21.5c6.6-20.5,20.7-33.9,45.3-33.9h203.4l-7.3,22.7h-164.8
	c-14.2,0-17.9,0.2-24.5,18.7L2888.2,1202.6z M3141.9,1309h-54.6l50.1-155.4h54.6L3141.9,1309z M3730.5,1153.6l-50,155.4h-54.6
	l-65.7-129.2l-41.6,129.2H3464l50.1-155.4h54.6l66.2,127.9l41.2-127.9H3730.5z M3255.2,1273.9c-1.8,8.1,0.5,11.6,10.5,12.5h101.2
	l15.2-46.6h-71.5l7.3-22.7h71.6h10.1h44.5l-30.1,92.1h-54.6H3240v0h-7.9c-28.4,0-40.3-7.5-32.8-30.5l2.3-7.2h0l27.6-85.6
	c6.9-19.4,20.9-31.9,44.6-31.9c1.3,0,2.5-0.1,3.7-0.2l186.6,0.1l-7.3,22.7h-156c-10.3,0.2-14.1,2-19.5,16.4L3255.2,1273.9z"/>
</svg>
