<?xml version="1.0" encoding="utf-8"?>
<!-- Generator: Adobe Illustrator 19.0.0, SVG Export Plug-In . SVG Version: 6.00 Build 0)  -->
<svg version="1.1" id="Layer_1" xmlns="http://www.w3.org/2000/svg" xmlns:xlink="http://www.w3.org/1999/xlink" x="0px" y="0px"
	 viewBox="0 0 32 32" style="enable-background:new 0 0 32 32;" xml:space="preserve">
<style type="text/css">
	.st0{fill:#FFFFFF;}
</style>
<path id="XMLID_6_" class="st0" d="M27,25H5c-0.552,0-1-0.447-1-1s0.448-1,1-1h22c0.553,0,1,0.447,1,1S27.553,25,27,25z"/>
<path id="XMLID_7_" class="st0" d="M27,17H5c-0.552,0-1-0.448-1-1s0.448-1,1-1h22c0.553,0,1,0.448,1,1S27.553,17,27,17z"/>
<path id="XMLID_8_" class="st0" d="M27,9H5C4.448,9,4,8.552,4,8s0.448-1,1-1h22c0.553,0,1,0.448,1,1S27.553,9,27,9z"/>
</svg>
